HIERARCHY
ROOT Hip
{
	OFFSET	0.00  0.00  0.00 
	CHANNELS 6 Xposition Yposition Zposition Xrotation Zrotation Yrotation
	JOINT Abdomen
	{
		OFFSET	0.000000 0.000000 0.000000
		CHANNELS 3 Xrotation Zrotation Yrotation
		JOINT Chest
		{
			OFFSET	0.000000 5.018152 -1.882229
			CHANNELS 3 Xrotation Zrotation Yrotation
			JOINT neckDummy
			{
				OFFSET	0.000000 8.316447 0.784897
				CHANNELS 3 Xrotation Yrotation Zrotation
				JOINT Neck
				{
					OFFSET	0.000000 2.280413 -0.392801
					CHANNELS 3 Xrotation Zrotation Yrotation
					JOINT Head
					{
						OFFSET	0.000000 3.496879 0.529469
						CHANNELS 3 Xrotation Zrotation Yrotation
						End Site
						{
							OFFSET 0.000000 10.353750 0.000000
						}
					}
				}
			}
			JOINT Left Collar
			{
				OFFSET	0.599237 8.316447 0.784897
				CHANNELS 3 Yrotation Zrotation Xrotation
				JOINT Left Shoulder
				{
					OFFSET	6.421198 0.010146 -0.332128
					CHANNELS 3 Zrotation Yrotation Xrotation
					JOINT Left Forearm
					{
						OFFSET	10.552783 0.025574 0.125508
						CHANNELS 3 Yrotation Zrotation Xrotation
						JOINT Left Hand
						{
							OFFSET	11.035963 0.319619 0.041520
							CHANNELS 3 Zrotation Yrotation Xrotation
							End Site
							{
								OFFSET 10.353753 0.000000 0.000000
							}
						}
					}
				}
			}
			JOINT Right Collar
			{
				OFFSET	-0.599237 8.316447 0.784897
				CHANNELS 3 Yrotation Zrotation Xrotation
				JOINT Right Shoulder
				{
					OFFSET	-6.421198 0.010146 -0.332128
					CHANNELS 3 Zrotation Yrotation Xrotation
					JOINT Right Forearm
					{
						OFFSET	-10.552783 0.025574 0.125508
						CHANNELS 3 Yrotation Zrotation Xrotation
						JOINT Right Hand
						{
							OFFSET	-11.035963 0.319619 0.041520
							CHANNELS 3 Zrotation Yrotation Xrotation
							End Site
							{
								OFFSET -10.353753 0.000000 0.000000
							}
						}
					}
				}
			}
		}
	}
	JOINT Left Thigh
	{
		OFFSET	4.500466 -6.400484 -1.832696
		CHANNELS 3 Xrotation Zrotation Yrotation
		JOINT Left Shin
		{
			OFFSET	-1.359117 -18.918689 1.179887
			CHANNELS 3 Xrotation Zrotation Yrotation
			JOINT Left Foot
			{
				OFFSET	-0.652380 -17.215187 -0.312137
				CHANNELS 3 Xrotation Yrotation Zrotation
				End Site
				{
					OFFSET 0.000000 0.000000 10.353752
				}
			}
		}
	}
	JOINT Right Thigh
	{
		OFFSET	-4.500466 -6.400484 -1.832696
		CHANNELS 3 Xrotation Zrotation Yrotation
		JOINT Right Shin
		{
			OFFSET	1.359117 -18.918689 1.179887
			CHANNELS 3 Xrotation Zrotation Yrotation
			JOINT Right Foot
			{
				OFFSET	0.652380 -17.215187 -0.312137
				CHANNELS 3 Xrotation Yrotation Zrotation
				End Site
				{
					OFFSET 0.000000 0.000000 10.353752
				}
			}
		}
	}
}
MOTION
Frames:     7
Frame Time: 0.041667
-0.740099 36.085684 10.805398 29.917011 -5.527114 -1.921084 -0.270853 2.136287 -0.474469 -5.209100 2.555203 -5.856777 0.000000 0.000000 0.000000 0.024958 0.235996 -0.035469 0.081038 -0.034941 1.489600 -24.636787 3.460650 5.492192 -17.928673 -43.058517 -23.007069 -48.309013 -18.964069 9.041544 -18.253269 -23.397068 6.035539 -14.600476 -4.136708 -0.695502 44.065990 -47.252464 -17.521606 47.251961 21.356651 -8.301460 9.268732 14.374744 1.710429 -9.297534 10.002129 -1.084001 71.206474 -6.095879 -7.266004 15.319196 7.164292 -4.321902 -68.932594 -1.081661 -4.096474 31.000507 2.846645 1.236722 -19.679630 0.568332 -3.242887 
-1.058423 32.567917 11.771306 29.788057 -7.068510 -2.646039 -0.560853 2.357595 0.436073 -5.692479 2.399199 -4.073443 0.000000 0.000000 0.000000 -0.291157 0.377685 -0.366975 0.065906 -0.037891 1.047336 -18.620388 2.917376 5.093406 -31.902708 -37.867470 0.385306 -50.275097 -10.019781 7.429860 -17.063221 -22.925547 6.115863 -18.764177 -7.674121 -3.830746 29.871420 -39.715248 -10.274902 45.796677 32.202591 -8.454537 9.801503 12.703894 2.157438 -30.153700 14.907566 -5.416588 85.506210 -6.494276 -9.883109 11.915266 7.184493 -4.270735 -76.176407 0.104696 -7.390826 66.522522 3.374743 5.113181 -32.909817 -4.828403 -6.696905 
-1.314847 31.530852 12.275701 28.657782 -7.445308 -2.793645 -2.233005 3.621456 1.331817 -5.406815 1.695384 -2.864296 0.000000 0.000000 0.000000 -0.251982 0.256127 -0.053577 -0.097265 -0.079883 0.355392 -10.186911 1.852232 2.868402 -37.769691 -30.222118 12.215595 -55.491505 -7.165211 6.618191 -12.682352 -21.472963 3.107579 -21.394503 -7.265443 -5.850570 27.392048 -28.453892 -8.789910 47.808109 36.624046 -11.860010 8.627716 12.245322 1.488887 -52.206989 16.845261 -10.921314 96.272476 -4.999154 -10.094831 7.114905 1.977749 -5.047288 -68.075066 1.260757 -7.922603 76.913712 3.031862 5.713772 -34.426525 -10.721395 -8.748897 
-1.472815 32.914847 12.203702 27.360466 -7.169304 -2.771729 -5.450847 4.644023 1.354293 -2.963527 0.912642 -1.572534 0.000000 0.000000 0.000000 -1.052953 0.387590 -0.262392 -0.854674 -0.231207 0.120927 -2.433731 1.142669 0.674253 -33.005619 -21.605110 14.232638 -61.516010 -5.199294 5.923351 -8.244741 -20.438614 0.906295 -20.139965 -2.686559 -8.151951 32.393837 -17.715393 -12.809872 52.603817 37.338352 -16.371212 6.722424 10.748120 0.658259 -65.467453 17.394175 -14.214870 99.100304 -5.131729 -10.576939 0.172476 0.035468 -5.449280 -54.424271 1.846458 -6.261467 76.730415 3.627820 6.148405 -33.497005 -14.140755 -12.684206 
-1.560677 34.864993 11.931323 26.044798 -6.710777 -2.692938 -8.364478 4.965031 1.279180 -0.886437 0.081234 -0.186319 0.000000 0.000000 0.000000 -1.546006 0.453002 -0.159657 -1.557337 -0.410016 0.091047 5.823610 0.236449 -0.957016 -27.630703 -11.933367 16.460934 -65.707970 -2.617531 5.727379 -4.103236 -18.911903 -1.620551 -15.603302 0.818842 -9.338275 39.488056 -4.757998 -17.612869 58.256363 37.696575 -21.063961 5.409158 10.079307 -0.394299 -76.377121 17.396515 -15.912724 99.276566 -5.485869 -11.178108 -6.132524 -0.500985 -4.946684 -39.705719 2.151082 -4.384891 68.269417 4.138137 5.602441 -25.367399 -16.350325 -13.528719 
-1.451232 37.457822 11.448638 25.137796 -5.812799 -2.591344 -10.969927 3.287795 1.197226 -0.130384 -0.623799 0.945285 0.000000 0.000000 0.000000 -1.184900 0.197425 0.020030 -1.828676 -0.253843 0.058593 14.065337 -0.805852 -1.192242 -24.245029 -2.639786 19.839897 -65.249588 0.354735 6.192416 -1.471408 -17.165588 -2.433259 -5.487388 1.620890 -8.142807 45.948830 8.539742 -23.014643 62.836082 38.190342 -25.741983 4.683095 9.851992 -0.463874 -81.698677 16.520956 -15.492851 97.946083 -6.359682 -10.011959 -17.925819 -0.383592 -2.343687 -25.187809 0.122049 -2.702679 52.728226 4.592977 4.473780 -8.069233 -15.470064 -0.879636 
-1.179565 39.971698 10.916173 24.680758 -4.637847 -2.331827 -12.685612 0.639588 0.964643 -0.185544 -1.260853 2.024938 0.000000 0.000000 0.000000 -0.568269 -0.109789 0.091099 -1.771185 0.136310 -0.083908 20.720362 -1.664563 -0.848190 -22.740324 7.288258 22.533691 -62.425629 3.138810 6.684081 0.989944 -15.085520 -2.257015 6.097228 1.149821 -5.837869 49.728161 20.192856 -26.992878 65.104965 38.506817 -28.540457 5.053015 10.846679 -0.741909 -84.823509 15.817804 -13.377080 95.705994 -7.403002 -9.452894 -26.893669 -0.228939 1.351409 -14.895230 -1.919163 -1.643844 35.191616 4.887081 2.829950 11.983299 -8.990666 4.483708 
